<svg width="32" height="32" fill="none" xmlns="http://www.w3.org/2000/svg"><rect width="32" height="32" rx="8" fill="url(#a)"/><path d="M15.776 2.205c-.226.036-.46.16-.608.322a1.058 1.058 0 0 0-.268.737c-.002.284.06.42.314.712.123.142.162.202.188.288.01.029.01.802.004 1.834l-.01 1.786-.155.084c-.411.228-.935.426-1.544.582-.336.088-.567.13-.716.13-.144 0-.176-.01-.325-.1a.38.38 0 0 0-.216-.071c-.194-.014-.318.05-.4.208-.036.07-.043.1-.043.217 0 .108.008.149.037.21.093.19.284.263.5.189.096-.032.207-.094.207-.113 0-.007.024-.022.053-.034.054-.023.177-.025 1.145-.019l.516.005.107.16c.144.219.242.322.37.389.06.032.138.084.175.117l.069.062.017 7.273c.013 5.31.013 7.435 0 7.871-.01.328-.017.732-.017.899v.3l.395 1.478.396 1.476.029-.056c.12-.232.5-1.684.655-2.506a3.63 3.63 0 0 0 .063-.573c.01-.186.022-3.305.032-7.276.016-6.468.028-8.547.056-8.803l.01-.103.185-.143c.215-.166.31-.264.394-.407.11-.187.018-.166.761-.17.729-.007.995.007 1.05.057.166.146.411.184.57.087.109-.067.178-.207.178-.358 0-.203-.065-.326-.207-.399-.15-.075-.393-.05-.49.053-.064.066-.14.084-.28.063-.267-.036-1.284-.318-1.71-.47-.279-.1-.37-.137-.56-.233l-.166-.082V4.24l.034-.067a.997.997 0 0 1 .109-.154c.22-.256.303-.399.336-.58a1.162 1.162 0 0 0-.152-.775 1.115 1.115 0 0 0-.609-.434 1.616 1.616 0 0 0-.479-.025Z" fill="#4169AB"/><path d="M17.76 10.026c-.017.153-.01 14.169.006 15.365l.013.864.145-.072c.262-.126.669-.412 1.258-.886.649-.52.865-.713 1.115-.99.096-.106.26-.284.365-.397.358-.381.558-.626.835-1.029.556-.806 1.134-1.873 1.434-2.65.354-.919.663-2.027.71-2.552l.009-.105-.532-.01a48.44 48.44 0 0 0-.831-.01c-.302 0-.303 0-.31.034-.004.021-.03.2-.057.403-.143 1.026-.23 1.331-.6 2.086a7.866 7.866 0 0 1-.602 1.052c-.469.698-1.023 1.33-1.315 1.503l-.102.058-.01-2.452-.022-5.64-.012-3.184h.169c.166 0 .17 0 .201.045.016.024.105.197.194.385.24.503.297.588.58.883.25.26.492.454.758.609.25.144.698.308 1.081.394.11.024.205.048.212.053.006.004-.007.482-.028 1.059-.022.577-.04 1.08-.04 1.118v.067l.748-.004.75-.004.027-.191c.071-.496.1-1.144.089-1.94-.012-.705-.042-1.497-.061-1.546-.013-.034-.016-.034-.595-.042-.636-.006-.75-.019-1.034-.11a1.683 1.683 0 0 1-.75-.445c-.35-.356-.556-.857-.606-1.464-.024-.3-.037-.33-.152-.361-.037-.01-.609-.016-1.543-.016h-1.483l-.015.122ZM11.052 9.963a2.41 2.41 0 0 0-.018.14c-.004.06-.024.197-.041.302-.172 1.022-.574 1.565-1.328 1.786-.356.105-.643.135-1.22.127l-.427-.005-.011.39a50.91 50.91 0 0 0 .03 2.688c.063 1.022.173 1.929.332 2.682.381 1.828 1.068 3.375 2.182 4.918.312.433.7.913.979 1.215.482.52 1.584 1.431 2.22 1.837.203.13.399.232.413.218.013-.013.051-10.193.039-10.204-.008-.006-2.929.041-2.946.048-.004.001-.005.34-.005.753v.754l.412.01c.225.006.549.01.72.01h.31l-.008.966c-.005.533-.012 1.675-.017 2.54-.004.867-.01 1.578-.014 1.581-.022.02-.248-.169-.492-.409-.658-.655-1.067-1.242-1.464-2.1-.498-1.077-.883-2.448-1.072-3.818a11.912 11.912 0 0 1-.13-1.916v-.668l.113-.029c.514-.13.748-.21 1.059-.36.322-.158.496-.28.764-.54a2.7 2.7 0 0 0 .613-.84c.136-.287.26-.534.282-.562.016-.02.064-.03.194-.037l.171-.011v3.082l.749.01c.411.006.751.006.756.001.005-.005.013-1.034.016-2.287l.005-2.279-.846-.01c-.465-.006-1.175-.01-1.578-.01-.684 0-.734.001-.742.027Z" fill="#4169AB"/><defs><radialGradient id="a" cx="0" cy="0" r="1" gradientUnits="userSpaceOnUse" gradientTransform="rotate(89.926 -.01 16.01) scale(24.2252)"><stop stop-color="#F3F5FA"/><stop offset="1" stop-color="#B5CFFE"/></radialGradient></defs></svg>